HIERARCHY
ROOT root
{
	OFFSET 0.000000 0.000000 0.000000
	CHANNELS 6 Xposition Yposition Zposition Zrotation Yrotation Xrotation
	JOINT lhip
	{
		OFFSET 0.058581 -0.082280 -0.017664
		CHANNELS 3 Zrotation Yrotation Xrotation
		JOINT lknee
		{
			OFFSET 0.043451 -0.386469 0.008037
			CHANNELS 3 Zrotation Yrotation Xrotation
			JOINT lankle
			{
				OFFSET -0.014790 -0.426874 -0.037428
				CHANNELS 3 Zrotation Yrotation Xrotation
				JOINT ltoe
				{
					OFFSET 0.041054 -0.060286 0.122042
					CHANNELS 3 Zrotation Yrotation Xrotation
					End Site
					{
						OFFSET 0.000000 0.000000 0.000000
					}
				}
			}
		}
	}
	JOINT rhip
	{
		OFFSET -0.060310 -0.090513 -0.013543
		CHANNELS 3 Zrotation Yrotation Xrotation
		JOINT rknee
		{
			OFFSET -0.043257 -0.383688 -0.004843
			CHANNELS 3 Zrotation Yrotation Xrotation
			JOINT rankle
			{
				OFFSET 0.019056 -0.420046 -0.034562
				CHANNELS 3 Zrotation Yrotation Xrotation
				JOINT rtoe
				{
					OFFSET -0.034840 -0.062106 0.130323
					CHANNELS 3 Zrotation Yrotation Xrotation
					End Site
					{
						OFFSET 0.000000 0.000000 0.000000
					}
				}
			}
		}
	}
	JOINT lowerback
	{
		OFFSET 0.004439 0.124404 -0.038385
		CHANNELS 3 Zrotation Yrotation Xrotation
		JOINT upperback
		{
			OFFSET 0.004488 0.137956 0.026820
			CHANNELS 3 Zrotation Yrotation Xrotation
			JOINT chest
			{
				OFFSET -0.002265 0.056032 0.002855
				CHANNELS 3 Zrotation Yrotation Xrotation
				JOINT lowerneck
				{
					OFFSET -0.013390 0.211636 -0.033468
					CHANNELS 3 Zrotation Yrotation Xrotation
					JOINT upperneck
					{
						OFFSET 0.010113 0.088937 0.050410
						CHANNELS 3 Zrotation Yrotation Xrotation
						End Site
						{
							OFFSET 0.000000 0.000000 0.000000
						}
					}
				}
				JOINT lclavicle
				{
					OFFSET 0.071702 0.114000 -0.018898
					CHANNELS 3 Zrotation Yrotation Xrotation
					JOINT lshoulder
					{
						OFFSET 0.122921 0.045205 -0.019046
						CHANNELS 3 Zrotation Yrotation Xrotation
						JOINT lelbow
						{
							OFFSET 0.255332 -0.015649 -0.022946
							CHANNELS 3 Zrotation Yrotation Xrotation
							JOINT lwrist
							{
								OFFSET 0.265709 0.012698 -0.007375
								CHANNELS 3 Zrotation Yrotation Xrotation
								End Site
								{
									OFFSET 0.000000 0.000000 0.000000
								}
							}
						}
					}
				}
				JOINT rclavicle
				{
					OFFSET -0.082954 0.112472 -0.023707
					CHANNELS 3 Zrotation Yrotation Xrotation
					JOINT rshoulder
					{
						OFFSET -0.113228 0.046853 -0.008472
						CHANNELS 3 Zrotation Yrotation Xrotation
						JOINT relbow
						{
							OFFSET -0.260127 -0.014369 -0.031269
							CHANNELS 3 Zrotation Yrotation Xrotation
							JOINT rwrist
							{
								OFFSET -0.269108 0.006794 -0.006027
								CHANNELS 3 Zrotation Yrotation Xrotation
								End Site
								{
									OFFSET 0.000000 0.000000 0.000000
								}
							}
						}
					}
				}
			}
		}
	}
}
MOTION
Frames: 14
Frame Time: 0.033333
1.178589 0.709069 0.983079 -89.436233 0.584591 83.013885 0.658911 -3.496613 -2.594238 -3.846432 -8.989933 17.659843 2.250721 11.632221 -13.522275 0.000000 -0.000000 0.000000 0.300870 -2.529771 -0.704465 -1.334424 -0.627313 16.177133 0.158297 -11.402834 -13.588543 0.000000 -0.000000 0.000000 -0.181316 3.325914 7.042953 0.065784 -1.793365 3.679378 -1.594782 0.700965 -2.456082 1.200851 -3.118233 -7.221105 1.743651 -4.439558 6.846442 -31.174735 -2.737549 0.219008 -50.694502 -4.199474 14.226475 2.751533 -21.888035 4.113732 -2.330305 -6.700282 3.152408 30.181043 8.736683 3.270588 52.792321 1.224883 17.828237 -4.168749 25.904731 6.154310 2.103065 6.365402 5.297563 
1.179322 0.709318 0.983119 -89.525976 0.495938 83.058724 0.594145 -3.508062 -2.697913 -3.828220 -8.855022 17.670882 2.280416 11.590552 -13.513775 0.000000 -0.000000 0.000000 0.226086 -2.392436 -0.866040 -1.321324 -0.680596 16.339867 0.162828 -11.284301 -13.599154 0.000000 -0.000000 0.000000 -0.325356 3.430010 7.011207 0.128589 -1.777228 4.020537 -1.639737 0.753657 -2.684829 1.081227 -3.028946 -7.353657 1.725698 -4.534470 6.790667 -31.090119 -2.759516 0.150401 -50.892588 -4.532057 14.145337 3.107599 -22.105624 3.469770 -2.531732 -6.854201 3.402723 30.384850 8.957974 3.337685 52.717904 1.464273 17.715198 -5.029012 25.514547 5.493886 2.286296 6.343030 6.032061 
1.179681 0.709550 0.983160 -89.428706 0.536593 83.225900 0.645249 -3.526328 -2.980066 -3.758610 -8.782498 17.760570 2.272126 11.540417 -13.598563 0.000000 -0.000000 0.000000 0.273527 -2.472726 -1.100969 -1.299472 -0.762772 16.361431 0.121918 -11.285962 -13.510317 0.000000 -0.000000 0.000000 -0.387497 3.459786 6.868447 0.174999 -1.836081 4.158440 -1.639956 0.768786 -2.763700 1.093780 -2.906433 -7.494042 1.671900 -4.622155 6.654495 -30.925772 -2.695555 0.042477 -50.982530 -4.608601 14.190446 3.253840 -22.346864 3.142710 -2.336813 -6.829850 3.256950 30.460232 8.987856 3.329322 52.693280 1.652173 17.606894 -5.334548 24.926069 4.995965 2.225416 6.105914 5.939767 
1.181581 0.709880 0.982538 -88.938633 0.575206 83.369345 0.687516 -4.009905 -3.680950 -3.930274 -8.892398 18.403233 2.318928 11.523243 -13.619654 0.000000 -0.000000 0.000000 0.300670 -2.340996 -1.392646 -1.278787 -1.072388 16.448718 -0.008792 -11.572516 -13.549212 0.000000 -0.000000 0.000000 -0.488980 3.309564 7.384397 0.211655 -2.046168 3.682285 -1.561042 0.634253 -2.679883 1.066234 -2.769236 -7.979571 1.724190 -4.666138 6.985401 -30.720123 -2.656416 0.088818 -51.109897 -4.790413 13.898344 3.686558 -22.525183 2.774000 -2.587122 -6.857402 3.023430 30.547845 9.032452 3.218318 52.598432 2.024457 17.392484 -6.087307 24.661739 4.724453 2.277623 6.269369 6.344315 
1.181461 0.710161 0.982551 -89.133181 0.587956 83.440476 0.735111 -3.873709 -3.659020 -3.875314 -8.769343 18.264352 2.336098 11.566817 -13.634108 0.000000 -0.000000 0.000000 0.328569 -2.389969 -1.510171 -1.213986 -0.917213 16.474689 -0.055428 -11.491490 -13.597188 0.000000 -0.000000 0.000000 -0.502021 3.475507 7.287887 0.197234 -1.918212 3.995463 -1.556214 0.629496 -2.786697 1.156180 -2.749133 -8.115868 1.687607 -4.787419 6.737476 -30.828103 -2.725423 0.054254 -50.857335 -4.798533 13.760649 3.870741 -22.576991 2.243450 -2.460717 -6.802867 3.022989 30.753755 9.089406 3.182421 52.387589 2.101367 17.189108 -6.481403 24.661437 4.140643 2.234782 6.289255 6.391200 
1.182639 0.710176 0.982301 -88.574149 0.709825 83.622345 0.870121 -4.239392 -4.256637 -3.989861 -8.870932 18.702922 2.312021 11.354256 -13.682710 0.000000 -0.000000 0.000000 0.443671 -2.494371 -1.772751 -1.203360 -1.187848 16.522665 -0.177616 -11.715210 -13.626526 0.000000 -0.000000 0.000000 -0.527640 3.492761 7.628767 0.312479 -2.223190 3.720688 -1.494299 0.514230 -2.660399 1.199254 -2.824020 -8.655486 1.769925 -4.966373 6.760794 -30.908106 -2.923034 0.145783 -50.492833 -4.875628 13.536774 4.043583 -22.477367 1.584427 -1.914197 -6.967828 2.531608 30.877506 9.191156 3.029538 52.117679 2.206887 16.935836 -7.091086 24.794593 3.495451 1.925554 6.623271 6.345354 
1.183217 0.710203 0.982444 -88.401870 0.731343 83.803779 0.917149 -4.300439 -4.586330 -3.975288 -8.840587 18.786742 2.267991 11.294462 -13.595952 0.000000 -0.000000 0.000000 0.489929 -2.484839 -1.942579 -1.206413 -1.285877 16.437226 -0.183522 -11.824999 -13.721003 0.000000 -0.000000 0.000000 -0.652512 3.622017 7.679426 0.388515 -2.278967 3.883199 -1.409416 0.545212 -2.654226 1.254578 -2.849590 -8.896288 1.794401 -5.355630 6.547155 -30.793407 -3.098359 0.020323 -50.368896 -4.963061 13.289021 4.375481 -21.890194 0.912151 -2.197450 -6.717293 2.787575 31.079816 9.361377 3.036971 51.698420 2.176882 16.706325 -7.829687 25.273541 2.908151 1.210420 7.024610 6.920530 
1.183526 0.709859 0.982710 -88.103998 0.716251 84.125317 0.893389 -4.293083 -4.915877 -3.910867 -8.914781 18.552476 2.179484 11.109619 -13.283622 0.000000 -0.000000 0.000000 0.464786 -2.537598 -2.256695 -1.203819 -1.339270 16.353469 -0.121728 -12.009735 -13.978665 0.000000 -0.000000 0.000000 -0.667966 3.681297 7.466864 0.448450 -2.381671 4.157533 -1.466262 0.517452 -2.731976 1.232409 -2.798844 -8.918913 1.824265 -5.726296 6.390236 -30.653885 -3.219656 -0.067338 -50.157352 -5.006813 12.982942 4.441329 -21.169101 0.525917 -2.292416 -6.705706 3.434409 31.142620 9.436653 3.024686 51.309393 2.190327 16.442391 -8.413623 25.888282 2.906151 -0.198173 7.572788 8.598620 
1.183709 0.709479 0.983119 -87.948940 0.622994 84.413036 0.801381 -4.298786 -5.182445 -3.897700 -8.989661 18.367263 2.058977 10.938102 -13.111733 0.000000 -0.000000 0.000000 0.355337 -2.753792 -2.547393 -1.268372 -1.281146 16.315087 0.049137 -12.203388 -14.499501 0.000000 -0.000000 0.000000 -0.728539 3.852732 7.279867 0.487535 -2.482990 4.332849 -1.496388 0.535058 -2.750847 1.112744 -2.846404 -8.837572 1.777543 -6.058293 6.120919 -30.439936 -3.334704 -0.225273 -49.924331 -4.868009 13.018622 4.470299 -20.190905 0.459330 -2.534290 -6.247182 3.944514 30.936089 9.443755 2.880186 51.014865 2.098374 16.381765 -8.582205 26.716084 2.819668 -0.772031 7.733337 8.895600 
1.183777 0.709277 0.983657 -87.691682 0.507834 84.675423 0.634889 -4.250588 -5.422778 -3.776050 -9.115369 18.089712 2.019061 10.915871 -12.895179 0.000000 -0.000000 0.000000 0.412914 -2.803875 -2.775551 -1.558560 -1.335280 16.285768 -0.072651 -12.697006 -14.902234 0.000000 -0.000000 0.000000 -0.764811 3.941549 7.242236 0.466458 -2.621861 4.503958 -1.587090 0.524665 -2.708252 1.010311 -2.905242 -8.888305 1.816830 -6.153860 5.739128 -30.142647 -3.313302 -0.484451 -49.528398 -4.505189 13.187656 4.528057 -19.632572 0.214809 -3.577004 -5.759620 4.095316 30.718147 9.553205 2.618669 50.681923 2.133682 16.133414 -9.204723 27.934282 1.237315 -0.056367 7.861800 7.515420 
1.183100 0.709288 0.984139 -87.530789 0.425911 84.704301 0.594696 -4.315429 -5.364549 -3.837213 -9.253826 17.892116 1.829942 10.898484 -12.727956 0.000000 -0.000000 0.000000 0.389603 -2.947937 -2.622667 -1.789664 -1.682352 16.030523 -0.485814 -12.953265 -14.307948 0.000000 -0.000000 0.000000 -0.790901 4.032262 7.378326 0.363928 -2.634283 4.475752 -1.595293 0.419470 -2.560051 0.992750 -2.967601 -8.684150 1.930177 -6.163041 5.323230 -30.033731 -3.203294 -0.457734 -49.098661 -4.251047 13.072716 4.621568 -19.558336 -0.098682 -3.613735 -5.985893 3.871949 30.494185 9.512040 2.377723 50.453079 2.245014 16.099461 -8.846749 28.644625 1.370841 0.132450 7.713980 6.963629 
1.182420 0.709563 0.984374 -87.304406 0.428924 84.657733 0.587942 -4.307655 -5.241196 -3.754348 -9.250047 17.810572 1.813258 10.802573 -12.654289 0.000000 -0.000000 0.000000 0.489438 -2.980990 -2.252854 -1.907423 -1.766683 15.468124 -0.664167 -12.897790 -13.503691 0.000000 -0.000000 0.000000 -0.678420 4.022359 7.599305 0.294755 -2.673216 4.472494 -1.690318 0.468520 -2.528388 0.919841 -3.070120 -8.450593 2.003619 -6.236704 5.142043 -29.913429 -3.129160 -0.418415 -48.816306 -4.002436 12.934037 4.809592 -19.105724 -0.365266 -3.827623 -5.847150 4.006009 30.270868 9.689391 2.294989 50.291154 2.360031 16.104886 -8.802732 28.678531 1.504162 0.490869 7.759435 7.154929 
1.181761 0.709689 0.984902 -87.211083 0.427192 84.711888 0.605389 -4.330951 -5.315535 -3.779498 -9.307746 17.886018 1.764295 10.778330 -12.587905 0.000000 -0.000000 0.000000 0.465458 -3.129715 -2.402373 -1.946902 -1.969551 15.697978 -0.631804 -12.803904 -13.187317 0.000000 -0.000000 0.000000 -0.756796 4.089767 7.602414 0.322934 -2.655271 4.563841 -1.661903 0.574601 -2.421617 0.865270 -3.132755 -8.167629 2.183638 -6.325066 4.667080 -29.666188 -3.081683 -0.526197 -48.931490 -3.828383 12.666983 5.157667 -18.391916 -1.230993 -4.033069 -5.895387 3.960341 30.142834 9.926334 2.238439 50.074290 2.416824 15.984765 -9.002070 28.509971 1.387843 0.818833 7.927107 7.631364 
1.181034 0.709947 0.985329 -87.182832 0.419210 84.814056 0.631048 -4.290148 -5.259712 -3.760629 -9.258598 17.612787 1.677528 10.766077 -12.376237 0.000000 -0.000000 0.000000 0.400454 -3.273645 -2.231896 -1.939624 -2.185412 15.244783 -0.604488 -12.629664 -12.894438 0.000000 -0.000000 0.000000 -0.650690 4.232071 7.741973 0.177548 -2.548048 4.339225 -1.677072 0.600715 -2.274551 0.911241 -3.377660 -7.944220 2.281778 -6.618779 4.433878 -29.592002 -2.647531 -0.731010 -48.808649 -3.767740 12.297223 5.831070 -17.764068 -1.890571 -4.160470 -6.247745 3.733909 30.034397 9.867865 2.064454 49.981622 2.662012 15.962299 -8.747334 27.594915 1.753358 1.563289 7.929736 7.559639 
